<?xml version='1.0' encoding='utf-8'?>
<mxfile host="app.diagrams.net"><diagram name="Use Case Diagram"><mxGraphModel><root><mxCell id="0" /><mxCell id="1" parent="0" /><mxCell id="072b31f9-1448-47bb-8a1c-982f5876d9a4" value="一般使用者" style="shape=umlActor;whiteSpace=wrap;html=1;" vertex="1" parent="1"><mxGeometry x="100" y="100" width="80" height="80" as="geometry" /></mxCell><mxCell id="079a8243-eb16-403b-a00d-bd9c0769b26d" value="瀏覽商品分類" style="shape=ellipse;whiteSpace=wrap;html=1;" vertex="1" parent="1"><mxGeometry x="500" y="100" width="160" height="80" as="geometry" /></mxCell><mxCell id="ca0b719e-d8b0-4dd7-8569-cc249bb26ed4" edge="1" parent="1" source="072b31f9-1448-47bb-8a1c-982f5876d9a4" target="079a8243-eb16-403b-a00d-bd9c0769b26d" style="endArrow=block;"><mxGeometry relative="1" as="geometry" /></mxCell><mxCell id="5d67d51d-5ea7-4449-a8a1-c7884254973e" value="查看商品詳情" style="shape=ellipse;whiteSpace=wrap;html=1;" vertex="1" parent="1"><mxGeometry x="500" y="200" width="160" height="80" as="geometry" /></mxCell><mxCell id="7de16d28-0f10-4f04-8bee-6eb2f045984b" edge="1" parent="1" source="072b31f9-1448-47bb-8a1c-982f5876d9a4" target="5d67d51d-5ea7-4449-a8a1-c7884254973e" style="endArrow=block;"><mxGeometry relative="1" as="geometry" /></mxCell><mxCell id="1a6fc38b-8ca9-4652-a825-f4eaf4f439a3" value="查看最近看過商品" style="shape=ellipse;whiteSpace=wrap;html=1;" vertex="1" parent="1"><mxGeometry x="500" y="300" width="160" height="80" as="geometry" /></mxCell><mxCell id="cb39abb1-6a90-4ddf-b681-da43b1f2ac53" edge="1" parent="1" source="072b31f9-1448-47bb-8a1c-982f5876d9a4" target="1a6fc38b-8ca9-4652-a825-f4eaf4f439a3" style="endArrow=block;"><mxGeometry relative="1" as="geometry" /></mxCell><mxCell id="d1356a2a-ee52-47c2-8877-bb1196e8464d" value="加入購物車" style="shape=ellipse;whiteSpace=wrap;html=1;" vertex="1" parent="1"><mxGeometry x="500" y="400" width="160" height="80" as="geometry" /></mxCell><mxCell id="286091b7-d4dd-4fdd-b972-90307f602950" edge="1" parent="1" source="072b31f9-1448-47bb-8a1c-982f5876d9a4" target="d1356a2a-ee52-47c2-8877-bb1196e8464d" style="endArrow=block;"><mxGeometry relative="1" as="geometry" /></mxCell><mxCell id="4fbde65a-50c9-47ea-9e0d-aa90367b52ce" value="搜尋商品" style="shape=ellipse;whiteSpace=wrap;html=1;" vertex="1" parent="1"><mxGeometry x="500" y="500" width="160" height="80" as="geometry" /></mxCell><mxCell id="29b5e1cc-011b-403c-b6ea-00d8ea46c50b" edge="1" parent="1" source="072b31f9-1448-47bb-8a1c-982f5876d9a4" target="4fbde65a-50c9-47ea-9e0d-aa90367b52ce" style="endArrow=block;"><mxGeometry relative="1" as="geometry" /></mxCell><mxCell id="7ed62f0d-6cd2-464d-9e34-13a99f57f50d" value="使用篩選功能" style="shape=ellipse;whiteSpace=wrap;html=1;" vertex="1" parent="1"><mxGeometry x="500" y="600" width="160" height="80" as="geometry" /></mxCell><mxCell id="92345ce3-6f16-48db-a7a0-c266be161a6b" edge="1" parent="1" source="072b31f9-1448-47bb-8a1c-982f5876d9a4" target="7ed62f0d-6cd2-464d-9e34-13a99f57f50d" style="endArrow=block;"><mxGeometry relative="1" as="geometry" /></mxCell><mxCell id="7956da39-ec2e-4b21-95c0-7f45049efee3" value="下單 / 模擬結帳" style="shape=ellipse;whiteSpace=wrap;html=1;" vertex="1" parent="1"><mxGeometry x="500" y="700" width="160" height="80" as="geometry" /></mxCell><mxCell id="9791af60-9155-4083-80aa-50ba5dd9bf8f" edge="1" parent="1" source="072b31f9-1448-47bb-8a1c-982f5876d9a4" target="7956da39-ec2e-4b21-95c0-7f45049efee3" style="endArrow=block;"><mxGeometry relative="1" as="geometry" /></mxCell><mxCell id="828f8049-8068-4417-9b68-d7ac4e8d514c" value="查看 / 編輯會員中心" style="shape=ellipse;whiteSpace=wrap;html=1;" vertex="1" parent="1"><mxGeometry x="500" y="800" width="160" height="80" as="geometry" /></mxCell><mxCell id="cbf966a4-f933-4491-8142-413df1401a78" edge="1" parent="1" source="072b31f9-1448-47bb-8a1c-982f5876d9a4" target="828f8049-8068-4417-9b68-d7ac4e8d514c" style="endArrow=block;"><mxGeometry relative="1" as="geometry" /></mxCell><mxCell id="60340fa7-7bde-42da-b230-4d44ebcb51a2" value="查看通知中心" style="shape=ellipse;whiteSpace=wrap;html=1;" vertex="1" parent="1"><mxGeometry x="500" y="900" width="160" height="80" as="geometry" /></mxCell><mxCell id="62c3f54b-ffcc-4a85-8a85-5db12fd6e35e" edge="1" parent="1" source="072b31f9-1448-47bb-8a1c-982f5876d9a4" target="60340fa7-7bde-42da-b230-4d44ebcb51a2" style="endArrow=block;"><mxGeometry relative="1" as="geometry" /></mxCell><mxCell id="3311121c-2645-40c2-87e1-5583c9ede419" value="登入 / 註冊" style="shape=ellipse;whiteSpace=wrap;html=1;" vertex="1" parent="1"><mxGeometry x="500" y="1000" width="160" height="80" as="geometry" /></mxCell><mxCell id="aac3f395-9a70-4a8c-b8d3-567ffb1712b6" edge="1" parent="1" source="072b31f9-1448-47bb-8a1c-982f5876d9a4" target="3311121c-2645-40c2-87e1-5583c9ede419" style="endArrow=block;"><mxGeometry relative="1" as="geometry" /></mxCell><mxCell id="4ccc4050-31e0-4193-a457-89031c70b289" value="員工" style="shape=umlActor;whiteSpace=wrap;html=1;" vertex="1" parent="1"><mxGeometry x="100" y="600" width="80" height="80" as="geometry" /></mxCell><mxCell id="1a65cbf5-df77-43af-8c5e-6cce57e760b7" value="查看系統概況" style="shape=ellipse;whiteSpace=wrap;html=1;" vertex="1" parent="1"><mxGeometry x="500" y="600" width="160" height="80" as="geometry" /></mxCell><mxCell id="41baa01c-8e91-4352-957b-6145f7cda557" edge="1" parent="1" source="4ccc4050-31e0-4193-a457-89031c70b289" target="1a65cbf5-df77-43af-8c5e-6cce57e760b7" style="endArrow=block;"><mxGeometry relative="1" as="geometry" /></mxCell><mxCell id="1bb3217d-0085-4ec4-b6c3-4e315894ccef" value="發送通知" style="shape=ellipse;whiteSpace=wrap;html=1;" vertex="1" parent="1"><mxGeometry x="500" y="700" width="160" height="80" as="geometry" /></mxCell><mxCell id="a1450d52-b555-4854-bf1f-3fc40180066a" edge="1" parent="1" source="4ccc4050-31e0-4193-a457-89031c70b289" target="1bb3217d-0085-4ec4-b6c3-4e315894ccef" style="endArrow=block;"><mxGeometry relative="1" as="geometry" /></mxCell><mxCell id="5637981f-5040-4529-9b3d-31551dd94591" value="商品管理" style="shape=ellipse;whiteSpace=wrap;html=1;" vertex="1" parent="1"><mxGeometry x="500" y="800" width="160" height="80" as="geometry" /></mxCell><mxCell id="95738315-34ac-4dc4-95b0-350d52025aef" edge="1" parent="1" source="4ccc4050-31e0-4193-a457-89031c70b289" target="5637981f-5040-4529-9b3d-31551dd94591" style="endArrow=block;"><mxGeometry relative="1" as="geometry" /></mxCell><mxCell id="7c6ff3ca-5ed5-4675-ac14-412c38d196b3" value="訂單管理" style="shape=ellipse;whiteSpace=wrap;html=1;" vertex="1" parent="1"><mxGeometry x="500" y="900" width="160" height="80" as="geometry" /></mxCell><mxCell id="2afb551a-8372-4163-81bc-4aa256f63864" edge="1" parent="1" source="4ccc4050-31e0-4193-a457-89031c70b289" target="7c6ff3ca-5ed5-4675-ac14-412c38d196b3" style="endArrow=block;"><mxGeometry relative="1" as="geometry" /></mxCell><mxCell id="f8885d7f-df8b-4c3a-9a25-820acdb61ee8" value="用戶管理" style="shape=ellipse;whiteSpace=wrap;html=1;" vertex="1" parent="1"><mxGeometry x="500" y="1000" width="160" height="80" as="geometry" /></mxCell><mxCell id="3a02376e-dc77-4d5a-950e-0285893bfcb2" edge="1" parent="1" source="4ccc4050-31e0-4193-a457-89031c70b289" target="f8885d7f-df8b-4c3a-9a25-820acdb61ee8" style="endArrow=block;"><mxGeometry relative="1" as="geometry" /></mxCell><mxCell id="c04bf7c2-fb5a-46f2-b488-20853f69afea" value="推薦系統管理" style="shape=ellipse;whiteSpace=wrap;html=1;" vertex="1" parent="1"><mxGeometry x="500" y="1100" width="160" height="80" as="geometry" /></mxCell><mxCell id="aa612414-780e-453e-b00a-259f4f87f2f8" edge="1" parent="1" source="4ccc4050-31e0-4193-a457-89031c70b289" target="c04bf7c2-fb5a-46f2-b488-20853f69afea" style="endArrow=block;"><mxGeometry relative="1" as="geometry" /></mxCell><mxCell id="aa9e95c6-2802-49d0-a426-49bba92e8294" value="搜尋與瀏覽紀錄" style="shape=ellipse;whiteSpace=wrap;html=1;" vertex="1" parent="1"><mxGeometry x="500" y="1200" width="160" height="80" as="geometry" /></mxCell><mxCell id="7d34b1e7-49fa-4ba3-9b37-ba3bbf7de0a9" edge="1" parent="1" source="4ccc4050-31e0-4193-a457-89031c70b289" target="aa9e95c6-2802-49d0-a426-49bba92e8294" style="endArrow=block;"><mxGeometry relative="1" as="geometry" /></mxCell><mxCell id="19f85155-1bc8-4196-902b-e1241816b702" value="帳號管理" style="shape=ellipse;whiteSpace=wrap;html=1;" vertex="1" parent="1"><mxGeometry x="500" y="1300" width="160" height="80" as="geometry" /></mxCell><mxCell id="a86da6fb-2b4a-4516-bec4-4ae622289409" edge="1" parent="1" source="4ccc4050-31e0-4193-a457-89031c70b289" target="19f85155-1bc8-4196-902b-e1241816b702" style="endArrow=block;"><mxGeometry relative="1" as="geometry" /></mxCell></root></mxGraphModel></diagram></mxfile>